<svg width="24" height="20" viewBox="0 0 24 20" fill="none" xmlns="http://www.w3.org/2000/svg">
<path fill-rule="evenodd" clip-rule="evenodd" d="M0 20V16.7667C1.72871 15.9965 7.02407 14.5333 7.27452 12.4166C7.33102 11.9383 6.20302 10.1173 5.94504 9.24357C5.39328 8.36227 5.19367 6.9631 5.80003 6.03095C6.04108 5.66186 5.9375 4.31166 5.9375 3.80133C5.9375 -1.26617 14.8165 -1.26805 14.8165 3.80133C14.8165 4.44348 14.6696 5.62043 15.0179 6.12323C15.5998 6.96499 15.2985 8.46019 14.8089 9.24169C14.4944 10.1588 13.2968 11.895 13.3985 12.4148C13.7788 14.3487 18.69 15.6462 20.2361 16.3354V19.9981H0V20ZM20.7031 6.81245V9.10799H23.1399V10.8442H20.7031V13.281H18.9669V10.8442H16.532V9.10799H18.9688V6.6731H20.705V6.81245H20.7031Z" fill="#284259"/>
</svg>
