<svg width="21" height="20" viewBox="0 0 21 20" fill="none" xmlns="http://www.w3.org/2000/svg">
<path fill-rule="evenodd" clip-rule="evenodd" d="M0 20V16.7664C1.72966 15.9971 7.02571 14.5326 7.27445 12.4159C7.33046 11.9381 6.20371 10.1162 5.94508 9.24317C5.39159 8.36187 5.19392 6.96167 5.79847 6.03095C6.03898 5.66031 5.93685 4.31117 5.93685 3.80216C5.93685 -1.26656 14.8191 -1.26821 14.8191 3.80216C14.8191 4.44296 14.6708 5.62077 15.02 6.12484C15.6032 6.96826 15.3017 8.46235 14.8108 9.24317C14.4962 10.1607 13.2986 11.897 13.4007 12.4159C13.7813 14.3498 18.6935 15.6495 20.2403 16.3364V19.9984L0 20Z" fill="#284259"/>
</svg>
