<svg width="30" height="30" viewBox="0 0 30 30" fill="none" xmlns="http://www.w3.org/2000/svg">
<path d="M14.9998 0C19.1418 0 22.8918 1.67896 25.6064 4.39355C28.321 7.10791 30 10.8582 30 15C30 19.1423 28.321 22.8921 25.6064 25.6064C22.8918 28.321 19.1418 30 14.9998 30C10.8577 30 7.10767 28.321 4.39331 25.6064C1.67871 22.8921 -0.000244141 19.1421 -0.000244141 14.9998C-0.000244141 10.8579 1.67871 7.10767 4.39331 4.39331C7.10767 1.67896 10.8577 0 14.9998 0ZM19.5701 9.12329C19.8877 8.80542 20.4031 8.80542 20.7207 9.12329C21.0383 9.44092 21.0383 9.95605 20.7207 10.2739L15.9939 15.001L20.7207 19.728C21.0383 20.0457 21.0383 20.5608 20.7207 20.8787C20.4031 21.1963 19.8877 21.1963 19.5701 20.8787L14.843 16.1516L10.116 20.8789C9.79834 21.1965 9.28296 21.1965 8.96533 20.8789C8.64771 20.561 8.64771 20.0459 8.96533 19.7283L13.6926 15.0012L8.96533 10.2739C8.64771 9.95605 8.64771 9.44092 8.96533 9.12329C9.28296 8.80542 9.79834 8.80542 10.116 9.12329L14.8433 13.8503L19.5701 9.12329ZM24.4558 5.54395C22.0359 3.12402 18.6926 1.62744 14.9998 1.62744C11.3069 1.62744 7.96387 3.12402 5.54395 5.54395C3.12402 7.96387 1.6272 11.3071 1.6272 14.9998C1.6272 18.6926 3.12402 22.0359 5.5437 24.4558C7.96362 26.8755 11.3066 28.3723 14.9995 28.3723C18.6924 28.3723 22.0356 26.8755 24.4556 24.4558C26.8755 22.0359 28.3723 18.6926 28.3723 14.9998C28.3726 11.3071 26.8757 7.96387 24.4558 5.54395Z" fill="black"/>
</svg>
