<svg width="28" height="28" viewBox="0 0 28 28" fill="none" xmlns="http://www.w3.org/2000/svg">
<circle cx="19" cy="9.5" r="9" fill="#284259"/>
<path d="M18.6992 13.6235C18.2194 13.6235 17.7915 13.5609 17.4155 13.4355C17.0431 13.3102 16.771 13.1652 16.5991 13.0005L16.8999 12.2109C17.4048 12.6084 18.0063 12.8071 18.7046 12.8071C19.2417 12.8071 19.6678 12.6746 19.9829 12.4097C20.3016 12.1411 20.4609 11.7669 20.4609 11.2871C20.4609 11.0257 20.4198 10.7983 20.3374 10.605C20.2586 10.408 20.1512 10.2505 20.0151 10.1323C19.8826 10.0106 19.7108 9.9139 19.4995 9.84229C19.2918 9.76709 19.077 9.71517 18.855 9.68652C18.6366 9.6543 18.3823 9.6346 18.0923 9.62744C18.0565 9.62744 18.0028 9.62744 17.9312 9.62744C17.8595 9.62386 17.8058 9.62207 17.77 9.62207V8.82178H18.0386C18.2892 8.8182 18.5094 8.80566 18.6992 8.78418C18.8926 8.75911 19.0841 8.71615 19.2739 8.65527C19.4673 8.5944 19.6266 8.51383 19.752 8.41357C19.8773 8.31331 19.9793 8.17904 20.0581 8.01074C20.1369 7.84245 20.1763 7.64372 20.1763 7.41455C20.1763 6.55518 19.6839 6.12549 18.6992 6.12549C18.3447 6.12549 18.0117 6.17741 17.7002 6.28125C17.3887 6.38509 17.1219 6.52474 16.8999 6.7002L16.5991 5.91602C17.1326 5.51139 17.9007 5.30908 18.9033 5.30908C19.3079 5.30908 19.6821 5.38428 20.0259 5.53467C20.3696 5.68148 20.6525 5.90885 20.8745 6.2168C21.0965 6.52116 21.2075 6.87923 21.2075 7.29102C21.2075 7.79232 21.084 8.2041 20.8369 8.52637C20.5898 8.84863 20.2425 9.07959 19.7949 9.21924C20.2962 9.32666 20.6883 9.5612 20.9712 9.92285C21.2576 10.2845 21.4009 10.7428 21.4009 11.2979C21.4009 12.0033 21.1484 12.5672 20.6436 12.9897C20.1387 13.4123 19.4906 13.6235 18.6992 13.6235Z" fill="white"/>
<path fill-rule="evenodd" clip-rule="evenodd" d="M14.6432 9.5C12.5174 9.5 10.8038 10.917 9.1466 12.2875C7.6466 13.5278 6.2298 14.6993 4.6594 14.6993H2.0546C0.9216 14.6993 0 15.619 0 16.7501V18.4833C0 19.6142 0.9216 20.5339 2.0546 20.5339H2.1702V24.5492C2.1702 25.6801 3.092 26.6 4.225 26.6H5.0932C6.2262 26.6 7.1478 25.6801 7.1478 24.5492V21.4135C7.8112 21.8433 8.4702 22.3873 9.146 22.9463C10.8034 24.3164 12.517 25.7338 14.6428 25.7338C16.5254 25.7336 18 22.1683 18 17.6169C18 13.0653 16.5254 9.5 14.6432 9.5ZM6.5114 24.5494C6.5114 25.3297 5.8752 25.9646 5.0934 25.9646H4.2252C3.4432 25.9646 2.807 25.3297 2.807 24.5494V20.5339H4.6594C5.2968 20.5339 5.9088 20.7294 6.5114 21.0414V24.5494ZM9.5526 22.4568C8.0318 21.1989 6.4592 19.8985 4.6594 19.8985H2.0546C1.2728 19.8985 0.6366 19.2637 0.6366 18.4833V16.7501C0.6366 15.9697 1.2728 15.3347 2.0546 15.3347H4.6592C6.459 15.3347 8.0314 14.0341 9.5524 12.7768C10.664 11.8577 11.8026 10.9188 13.0456 10.4473C11.9898 11.8 11.286 14.4727 11.286 17.6169C11.286 20.7605 11.9896 23.4334 13.0452 24.7857C11.8026 24.3146 10.664 23.3757 9.5526 22.4568ZM14.6432 25.0982C13.3294 25.0982 11.9228 22.0921 11.9228 17.6169C11.9228 13.1415 13.3292 10.1352 14.6432 10.1352C15.9568 10.1352 17.3634 13.1415 17.3634 17.6169C17.3632 22.0921 15.9568 25.0982 14.6432 25.0982Z" fill="#1F263E"/>
</svg>
