<svg width="18" height="18" viewBox="0 0 18 18" fill="none" xmlns="http://www.w3.org/2000/svg">
<path fill-rule="evenodd" clip-rule="evenodd" d="M16.2901 7.69349L17.3511 7.08828C17.6505 6.91728 17.8651 6.64067 17.955 6.30907C18.0446 5.97727 17.9993 5.63146 17.8262 5.33586L16.8499 3.66504C16.6771 3.36924 16.3971 3.15703 16.0613 3.06823C15.7261 2.97963 15.3757 3.02443 15.0763 3.19544L14.015 3.80064C13.8707 3.88324 13.6114 3.86304 13.4817 3.75884C13.4697 3.74924 13.1894 3.52524 12.7841 3.29404C12.385 3.06567 12.0451 2.93617 12.0287 2.9299L12.0285 2.92983C11.8724 2.87063 11.7249 2.65883 11.7249 2.49323V1.28321C11.7247 0.575406 11.1421 0 10.4261 0H8.47358C7.75761 0 7.17505 0.575406 7.17505 1.28301V2.49343C7.17505 2.65843 7.02748 2.87063 6.87141 2.92983C6.85724 2.93523 6.51637 3.06523 6.11578 3.29404C5.71053 3.52524 5.43018 3.74924 5.41864 3.75864C5.28909 3.86284 5.02999 3.88324 4.88506 3.80064L3.82336 3.19504C3.52398 3.02423 3.1744 2.97943 2.83838 3.06803C2.50277 3.15683 2.22262 3.36904 2.04975 3.66464L1.07348 5.33546C0.900608 5.63126 0.855064 5.97707 0.944939 6.30847C1.03481 6.64047 1.24938 6.91708 1.54856 7.08788L2.60985 7.69328C2.75438 7.77569 2.86632 8.00769 2.8396 8.17049C2.83717 8.18489 2.78191 8.52989 2.78191 9.0001C2.78191 9.47031 2.83717 9.81491 2.8396 9.82931C2.86611 9.99191 2.75418 10.2241 2.60985 10.3065L1.54856 10.9117C1.24918 11.0825 1.03481 11.3593 0.944939 11.6913C0.855064 12.0227 0.900608 12.3689 1.07348 12.6645L2.04975 14.3354C2.40804 14.9478 3.20335 15.1582 3.82377 14.805L4.88486 14.1998C5.02939 14.117 5.28869 14.1376 5.41803 14.2416C5.42998 14.2512 5.71053 14.4754 6.11578 14.7068C6.51657 14.936 6.85745 15.0658 6.87162 15.071C7.02768 15.1302 7.17525 15.3422 7.17525 15.5074V16.717C7.17525 17.4242 7.75781 18 8.47378 18H10.4263C11.1423 18 11.7249 17.4242 11.7249 16.717V15.5074C11.7249 15.3424 11.8724 15.1302 12.0285 15.071C12.0427 15.0658 12.3839 14.9358 12.7845 14.7068C13.19 14.4754 13.4707 14.2512 13.4823 14.2416C13.6118 14.1376 13.8715 14.1174 14.0159 14.1998L15.0763 14.8046C15.3757 14.9756 15.7259 15.0206 16.0613 14.932C16.3971 14.8432 16.6773 14.6308 16.8499 14.3352L17.8262 12.6643C17.9991 12.3685 18.0446 12.0229 17.955 11.6915C17.8651 11.3595 17.6503 11.0825 17.3509 10.9119L16.2903 10.3067C16.1457 10.2243 16.0338 9.99251 16.0603 9.82951C16.0629 9.81511 16.118 9.47031 16.118 9.0003C16.118 8.52969 16.0625 8.18509 16.0601 8.17069C16.0336 8.00789 16.1455 7.77589 16.2901 7.69349ZM15.4243 8.27129L15.4249 8.27535C15.4304 8.31318 15.4735 8.60965 15.4735 9.0003C15.4735 9.41671 15.4247 9.72591 15.4243 9.72851C15.3559 10.1491 15.5949 10.6453 15.9682 10.8581L17.0291 11.4631C17.1795 11.5491 17.2872 11.6885 17.3327 11.8563C17.3783 12.0235 17.3552 12.1977 17.2686 12.3461L16.2923 14.017C16.2052 14.1658 16.0644 14.272 15.8947 14.3172C15.7255 14.3622 15.5492 14.3394 15.3986 14.2536L14.3383 13.649C13.9655 13.4358 13.4108 13.4794 13.0764 13.7476C13.074 13.75 12.821 13.9514 12.4627 14.1558C12.108 14.3582 11.8008 14.4762 11.7979 14.477C11.3959 14.6294 11.0808 15.0822 11.0808 15.5076V16.7172C11.0808 17.0736 10.7874 17.3634 10.4267 17.3634H8.47418C8.11347 17.3634 7.82016 17.0736 7.82016 16.7172V15.5076C7.82016 15.0822 7.50519 14.6292 7.10298 14.4768C7.09974 14.4756 6.79591 14.36 6.43844 14.1558C6.08015 13.9514 5.82713 13.75 5.8249 13.7476C5.4903 13.4794 4.93546 13.4356 4.56321 13.649L3.84664 14.0574C3.79762 14.0857 3.72535 14.1269 3.61313 14.1907L3.61293 14.1908L3.50232 14.2538C3.18938 14.4322 2.78879 14.3258 2.60864 14.0176L1.63236 12.3467C1.54552 12.1979 1.52265 12.0237 1.56819 11.8565C1.61353 11.6887 1.72142 11.5493 1.87162 11.4633L1.90791 11.4427C2.08237 11.3434 2.16885 11.2942 2.21533 11.2661L2.9319 10.8581C3.30517 10.6453 3.54382 10.1489 3.4756 9.72891L3.47546 9.72797C3.47255 9.70876 3.42642 9.40503 3.42642 9.0003C3.42642 8.58611 3.47468 8.27759 3.47559 8.27176L3.4756 8.27169C3.54422 7.85109 3.30537 7.35488 2.9319 7.14208L2.21371 6.73228L1.87061 6.53667C1.72041 6.45107 1.61252 6.31147 1.56718 6.14387C1.52164 5.97647 1.54471 5.80246 1.63135 5.65366L2.60762 3.98284C2.69446 3.83444 2.83535 3.72784 3.00518 3.68304C3.1744 3.63804 3.35071 3.66084 3.50091 3.74604L4.5626 4.35165C4.93607 4.56465 5.49009 4.52125 5.82429 4.25285C5.82692 4.25065 6.07954 4.04985 6.43803 3.84504C6.79227 3.64264 7.09934 3.52484 7.10197 3.52404C7.50398 3.37164 7.81915 2.91923 7.81915 2.49343V1.28301C7.81915 0.92661 8.11246 0.636607 8.47317 0.636607H10.4257C10.7864 0.636607 11.0797 0.92661 11.0797 1.28301V2.49303C11.0797 2.91883 11.3949 3.37164 11.7967 3.52384C11.8 3.52504 12.1068 3.64264 12.4613 3.84484C12.8195 4.04945 13.0724 4.25045 13.0748 4.25265C13.4088 4.52105 13.9638 4.56465 14.3365 4.35165L15.3978 3.74664C15.548 3.66064 15.7237 3.63804 15.8939 3.68324C16.0635 3.72804 16.2044 3.83444 16.2913 3.98284L17.2675 5.65366C17.3544 5.80246 17.3773 5.97667 17.3317 6.14387C17.2862 6.31147 17.1785 6.45107 17.0281 6.53667L15.9678 7.14208C15.5945 7.35488 15.3557 7.85109 15.4243 8.27129ZM9.44985 5.49866C7.49608 5.49866 5.90607 7.06968 5.90607 9.0005C5.90607 10.9313 7.49608 12.5021 9.44985 12.5021C11.4036 12.5021 12.9936 10.9313 12.9936 9.0005C12.9936 7.06968 11.4036 5.49866 9.44985 5.49866ZM9.44985 11.8653C7.85133 11.8653 6.55078 10.5799 6.55078 9.0005C6.55078 7.42088 7.85133 6.13567 9.44985 6.13567C11.0484 6.13567 12.3489 7.42088 12.3489 9.0005C12.3489 10.5799 11.0484 11.8653 9.44985 11.8653Z" fill="#1F263E"/>
</svg>
